<?xml version="1.0" encoding="utf-8"?>
<!-- Generator: Adobe Illustrator 24.2.0, SVG Export Plug-In . SVG Version: 6.00 Build 0)  -->
<svg version="1.1" id="Layer_1" xmlns="http://www.w3.org/2000/svg" xmlns:xlink="http://www.w3.org/1999/xlink" x="0px" y="0px"
	 viewBox="0 0 612 792" style="enable-background:new 0 0 612 792;" xml:space="preserve">
<style type="text/css">
	.st0{display:none;}
	.st1{display:inline;fill:#231F20;stroke:#FFFFFF;stroke-width:0.25;stroke-miterlimit:10;}
	.st2{fill:none;stroke:#FFFFFF;stroke-width:1.06;stroke-miterlimit:10;}
</style>
<g id="Layer_2_1_" class="st0">
	<rect y="-0.8" class="st1" width="612" height="792"/>
</g>
<g id="Layer_1_2_">
	<g id="Layer_1_1_" class="st0">
		
			<image style="display:inline;overflow:visible;enable-background:new    ;" width="1460" height="2048" xlink:href="D930768C.jpeg"  transform="matrix(0.3867 0 0 0.3867 23.6953 0)">
		</image>
	</g>
	<g id="Layer_2_2_">
		<path class="st2" d="M36.8,490.9c0,0-9.5,15.4-2.3,47.4l5,15.6l4.3,31c0,0,0.4,19.8,13.2,45.9c12.8,26,12.1,56,12.1,56
			c0.6,6.3,3.6,31,23.8,46.8c14.9,11.7,31.3,12.3,44.1,12.7c41.8,1.1,73.9-20.8,88-31.9"/>
		<path class="st2" d="M110.4,742.8c0,0,49.5,15.2,79.5,12.4c35-3.2,97-25.3,86.1-22.1c0,0,47.7-18.4,71.5-49.4
			c19-24.7,57.6-65,57.6-65l15.8-15.2c0,0-7.7,30.9,18,27.9s31.6-16.2,31.6-16.2l4-4.8l10.3-7c0,0,6.2-9.9,23.1-20.2
			c16.9-10.3,25-29.4,25-29.4s12.5-20.9,20.9-50s-18.4-40-18.4-40s-10.3-2.9-22.8,0c-12.5,2.9-27.9,12.9-36,22.8
			c-8.1,9.9-25,31.6-20.6,47.1"/>
		<path class="st2" d="M93.1,663.3c0,0,10.3,18,43.8,15.1C136.8,678.4,118.4,676.5,93.1,663.3z"/>
		<path class="st2" d="M83.5,611.5c2.9,2.4,6.2,4.9,9.9,7.3c4.9,3.2,9.6,5.8,13.8,7.8c5.4,1.2,10.8,2.5,16.2,3.7
			c3.1,0.9,6.2,1.8,9.4,2.7c3.2,0.4,6.4,0.8,9.6,1.1c4.9,1.6,9.8,3.2,14.7,4.8c3.6,0.9,7.2,1.9,10.8,2.8c6,1.5,12,3,18,4.4
			c2.6,0.9,5.7,2.2,9,4.3c2.5,1.6,4.6,3.2,6.3,4.7l-32-2.2c-10.8-1.9-20-3.6-27.2-5.1c-3.4-0.7-8.6-1.7-15.3-3.9
			c-6.5-2.1-10-3.8-11.4-4.6c-4.2-2.1-7.4-4.4-9.6-6.1C98.2,626,90.9,618.8,83.5,611.5z"/>
		<path class="st2" d="M85.2,613.1c4.1,10,8.3,20.1,12.4,30.1c4.2,4,8.5,8,12.7,12.1l28.6,8.1c4.1,0.2,8.5,0.3,13.1,0.1
			c6.1-0.2,11.8-0.8,16.9-1.5c3.7-1.3,8.2-2.6,13.3-3.6c7.3-1.3,13.7-2.6,18.9-2.4"/>
		<path class="st2" d="M183.5,565.9c4.1,13-8.6,22-8.6,22s-17.6,8-30.3,2.8c-12.7-5.2-28.1,1.7-28.1,1.7l-7.7,2.5h-11
			c0,0-21.5-7.7-25.3-28.4s1.7-24.5,2.5-27.3c0.8-2.8,8.6-8.5,8.6-8.5c1.2-5.3,8.4-15.7,8.4-15.7l12.7-20.1l10.2-16l13.6-14.6
			c0,0,7.1-6.1,19.2,6.4c0,0-1.4,18.2,10.2,52.4c0,0,11,22.3,37.5,35.6c26.5,13.2,67.5,11.3,67.5,11.3s15.1-3.7,19.6-17.6
			c3.7-11.5,8.3-35.8,8.3-35.8s3-12.7,11.6-10.2c8.5,2.5,8.5,2.5,8.5,2.5l100.1-26.5c0,0,8.5-1.1,12.1-3.6l40.8-8.8"/>
		<path class="st2" d="M171.1,556"/>
		<path class="st2" d="M173.3,556c-1.5-1.5-3.5-3-6-4.3c-9.6-4.8-19.5-1.4-22.1-0.4c-2.6,0.7-5.8,1.7-9.4,3.6
			c-3.4,1.8-6.1,3.8-8.1,5.5"/>
		<path class="st2" d="M423,478.5c0,0,4.4-10.2-1.4-13.8c-4.3-0.5-15.2,2.5-15.2,2.5c-56.1,9.8-78.4,13.4-82.3,13.7
			c-0.5,0-3.3,0.2-7.1,0.9c-2.8,0.5-4.7,1-5.8,1.2c-2.9,0.7-7.3,1.5-13.3,2c0,0-12.9-4.5-67.9-20.3c0,0-33.8-9.8-49.2-12
			c0,0-14.9-2.7-32-0.9c-20.6,2.1-28.5-10.5-28.5-10.5l-25.5-18.5"/>
		<line class="st2" x1="421.6" y1="464.7" x2="463.8" y2="458.7"/>
		<path class="st2" d="M21.7,395.3c-15-1.6-8.8,44.4-8.8,44.4s1.4,15.4,8,27.8c6.6,12.4,19,21.8,19,21.8s27.6,17.1,43.3,19l6.1,0.3
			l5-2.8l4.4-5.5c0,0,11.1-22.8,16.5-40.3c4.8-15.5-15.5-29.9-28.7-37.8C47.9,404.5,41.3,400.3,21.7,395.3z"/>
		<path class="st2" d="M95.1,423c-0.1,0-0.1-0.1-0.2-0.1l-22.3-11.9c-15.5-8-24.7-11.6-30.3-13.4c-8.8-2.9-13.1-4.2-13.1-4.2
			c-7.8-2.5-7.7-2.4-9.7-3.1c-2.6-1-4.9-2-8.6-2.9c-3.8-1-5.7-1.5-6.9-0.7c-2.6,1.6-1.8,6.6-1.2,10.4c0.1,0.9,0.5,1.8,1.2,2.3
			c0.7,0.5,1.8,3.2,3.2,14.3c0,0.1,0,0.1,0,0.2c0,1.9,0.7,28.7,4.7,41c4.1,12.7,2.8,12.6,7.2,18.9c4.4,6.2,13.5,16.1,25.4,23
			c11.9,6.9,33.4,15.4,43.5,14.6c9.5-0.8,13.9-11.2,14.5-12.7c0-0.1,0.1-0.1,0.1-0.2c0-0.1,0.1-0.1,0.1-0.1
			c-0.9-0.7,6.2-8.5,11.7-18.3"/>
		<path class="st2" d="M101,495.1"/>
		<path class="st2" d="M173.3,455.5c0,0-16.6-5-17.9,18.2c-1.3,23.1,11,55.1,11,55.1s10.6,20.4,38,30.6c0,0,14.7,7.5,52.8,8.3
			c0,0,15.7-2.3,17.6-9.3c0,0,2-5.4,5.3-28.3c0,0,6.1-25.9,0-37.9c0,0-1.1-10.5-35.5-18.7l-29.9-9.9l-19.8-4.8
			C194.9,458.8,179.4,454.5,173.3,455.5z"/>
		<polyline class="st2" points="310,483.3 318.2,488.7 316.1,507.2 329.7,503.6 331.6,486.1 324,481 		"/>
		<line class="st2" x1="318.2" y1="488.7" x2="331.6" y2="486.1"/>
		<polyline class="st2" points="405.5,467.4 412.4,470.5 410.9,482.1 		"/>
		<line class="st2" x1="412.4" y1="470.5" x2="424.2" y2="468.2"/>
		<path class="st2" d="M524.9,511c2.4,19.1-10.5,38.9-10.5,38.9s-10.3,21.3-21.1,25.3c-10.8,4-15.8,8.4-21.7,9.6
			c-5.9,1.1-3.9,6.6-3.9,6.6s7.7,4,8.4,0s10.7-9,10.7-9c17.3-7.2,25.5-20.9,25.5-20.9c20.6-28.8,23.7-40.3,23.7-40.3
			s8.6-26.5,2.8-33.8c-5.9-7.3-25.2-3.7-25.2-3.7c-23,1.1-47,43.7-47,43.7s-5.3,12.7,3.5,21.7"/>
		<path class="st2" d="M80.4,308.3c-15.6-12.5-16.7-25-16.7-25c-11.7-11,0-49.3,0-49.3s26.4-117.6,72-124.2c0,0,35.3-45.6,69.1-45.6
			c0,0,37.6-31.6,80.9-29.4c0,0,98.5-26.5,135.9,4.4c0,0,56.6,13.2,108,64.7s51.5,93.3,51.5,93.3s45.6,52.9,22.8,124.2
			c0,0-36.4,64.1-44.4,96c-4.6,6.7-20.9,37.5-17.7,49.9"/>
		<path class="st2" d="M457.5,511.4c0,0-19.4,1.6-32.8,40.2c-13.5,38.6-13.5,38.6-13.5,38.6l-14.9,11.6l-16.5-11.6l9.4-41
			c0,0,22.3-44.1,19.8-63"/>
		<path class="st2" d="M408.9,464.7c0,0,10.5-20.8-25.9-69.5c0,0-30.3-16.8-11.6-59.2l5.5-24.3c0,0-41.4,19.8-86-7.2
			c0,0-40.3-34.2-77.7-29.8s-76.4-14.3-76.4-14.3s-8.6-9-38.1-5.9c-6.9,0.7-14.9,36.2-14.9,36.2c-5.5,13.2-10.5,49.4-12.1,55.7
			c-1.7,6.2-8,23-8,23c-2.8,2-1.2,15.2-1.2,15.2c1.8,10.8,6.8,20.8,6.8,21.3"/>
		<path class="st2" d="M424.6,598.4c0,0-2.2-13.8,18.1-22.6c0,0,18.6,5.5,35.1-5c0,0,26.5-19.3,25.9-35.8c-0.6-16.5-13.8-16-13.8-16
			"/>
		<path class="st2" d="M326.9,480.5c0-3-4.1-7.6-4.1-7.6c-10.1-18-22.6-22-22.6-22s-30.7-6.8-49.6-5.7c-18.9,1.1-36.2-9-39.3-12.5
			c-3.1-3.5-8.6-4.8-8.6-4.8s-6.2-1.5-12.1,0.7c-5.9,2.2-15.8-3.5-15.8-3.5s-10.1-0.9-14.9,4.6s3.3,15.4,3.3,15.4s1.5,3.3,6.6,4.4"
			/>
		<path class="st2" d="M307.7,481c0,0-11-9.4-26.5-10.6c0,0-14.9-3.7-25.4-1.7c0,0-1.5,1.5-13.9-1.3"/>
		<path class="st2" d="M96,422.3c0,0-4.9-11.5-12.5-17.4c0,0-8-5.7-16.6-8"/>
		<path class="st2" d="M114.8,435.6c6.4,1.7,11.9,8.7,18.3,9.1c6.4,0.4,3.3-13.4,3.3-13.4s-7.3-12.9-14.7-16.7
			c-7.3-3.9-16.5-17.3-16.5-17.3s-5-5.5-19.1-7.3c0,0-11-3.4-21.3-1.6"/>
	</g>
	<g id="Layer_3">
	</g>
</g>
</svg>
